<svg width="32" height="32" viewBox="0 0 32 32" fill="none" xmlns="http://www.w3.org/2000/svg">
<rect x="0.211914" width="31.7881" height="32" rx="8" fill="url(#paint0_linear_60_200)"/>
<g clip-path="url(#clip0_60_200)">
<g filter="url(#filter0_d_60_200)">
<path d="M19.798 11.6207C19.9806 11.4363 20.2288 11.3318 20.4883 11.3299C20.7478 11.3279 20.9976 11.4288 21.1829 11.6105C21.3683 11.7921 21.4742 12.0398 21.4775 12.2993C21.4808 12.5588 21.3813 12.809 21.2006 12.9954L15.974 19.5294C15.8842 19.626 15.7758 19.7036 15.6554 19.7575C15.5349 19.8114 15.4049 19.8404 15.273 19.8429C15.1411 19.8454 15.01 19.8213 14.8876 19.772C14.7652 19.7227 14.654 19.6492 14.5606 19.556L11.0953 16.092C10.9112 15.9078 10.8077 15.6579 10.8078 15.3975C10.8079 15.137 10.9114 14.8872 11.0956 14.703C11.2799 14.5189 11.5297 14.4155 11.7902 14.4155C12.0507 14.4156 12.3005 14.5191 12.4846 14.7034L15.2253 17.4447L19.772 11.6514C19.7802 11.6408 19.7891 11.6308 19.7986 11.6214L19.798 11.6207Z" fill="white"/>
</g>
</g>
<defs>
<filter id="filter0_d_60_200" x="10.8078" y="11.3298" width="10.6698" height="10.5132" filterUnits="userSpaceOnUse" color-interpolation-filters="sRGB">
<feFlood flood-opacity="0" result="BackgroundImageFix"/>
<feColorMatrix in="SourceAlpha" type="matrix" values="0 0 0 0 0 0 0 0 0 0 0 0 0 0 0 0 0 0 127 0" result="hardAlpha"/>
<feOffset dy="2"/>
<feColorMatrix type="matrix" values="0 0 0 0 0 0 0 0 0 0 0 0 0 0 0 0 0 0 0.1 0"/>
<feBlend mode="normal" in2="BackgroundImageFix" result="effect1_dropShadow_60_200"/>
<feBlend mode="normal" in="SourceGraphic" in2="effect1_dropShadow_60_200" result="shape"/>
</filter>
<linearGradient id="paint0_linear_60_200" x1="16.106" y1="0" x2="16.106" y2="32" gradientUnits="userSpaceOnUse">
<stop stop-color="#89F09C"/>
<stop offset="1" stop-color="#3CC755"/>
</linearGradient>
<clipPath id="clip0_60_200">
<rect width="10.596" height="10.6667" fill="white" transform="translate(10.808 10.6667)"/>
</clipPath>
</defs>
</svg>
